<?xml version="1.0" standalone="no"?>
<!DOCTYPE svg PUBLIC "-//W3C//DTD SVG 20010904//EN"
 "http://www.w3.org/TR/2001/REC-SVG-20010904/DTD/svg10.dtd">
<svg version="1.0" xmlns="http://www.w3.org/2000/svg"
 width="700.000000pt" height="700.000000pt" viewBox="0 0 700.000000 700.000000"
 preserveAspectRatio="xMidYMid meet">
<metadata>
Created by potrace 1.14, written by Peter Selinger 2001-2017
</metadata>
<g transform="translate(0.000000,700.000000) scale(0.100000,-0.100000)"
fill="#000000" stroke="none">
<path d="M3278 6995 c-1 -1 -41 -5 -88 -9 -47 -4 -96 -8 -110 -10 -14 -2 -46
-7 -71 -10 -25 -4 -57 -9 -70 -11 -13 -2 -42 -6 -63 -10 -141 -21 -478 -113
-601 -165 -11 -4 -49 -19 -85 -33 -36 -14 -86 -34 -113 -46 -26 -11 -51 -21
-55 -22 -4 -1 -19 -10 -34 -20 -14 -10 -30 -19 -36 -19 -16 0 -211 -109 -333
-186 -523 -331 -966 -819 -1242 -1370 -149 -297 -252 -597 -311 -909 -26 -137
-35 -194 -42 -260 -2 -22 -7 -76 -11 -120 -10 -100 -10 -496 0 -590 4 -38 10
-99 13 -135 5 -54 41 -263 57 -335 131 -568 391 -1087 763 -1521 83 -97 266
-280 354 -354 35 -30 71 -61 79 -69 8 -7 49 -39 90 -70 42 -31 78 -59 81 -62
27 -31 347 -224 485 -292 229 -113 572 -238 745 -271 14 -3 59 -12 100 -21 93
-21 107 -23 235 -41 22 -3 51 -8 65 -10 166 -25 682 -25 842 1 13 2 45 6 72
10 489 62 1045 275 1460 559 49 34 98 68 111 76 210 142 539 466 727 715 300
398 527 890 623 1348 2 10 6 26 9 35 3 9 7 33 10 52 3 19 8 46 11 60 2 13 7
42 10 65 3 22 8 47 10 55 2 8 7 47 11 85 3 39 8 84 11 100 8 58 10 511 2 597
-15 161 -26 245 -54 393 -33 178 -107 429 -180 615 -47 119 -162 358 -213 445
-101 172 -122 204 -257 390 -56 78 -212 253 -319 360 -195 194 -380 341 -624
494 -62 39 -115 71 -118 71 -2 0 -35 17 -72 38 -283 160 -742 314 -1092 368
-25 3 -54 8 -65 10 -10 2 -47 6 -81 10 -33 3 -74 8 -90 10 -33 5 -540 14 -546
9z"/>
</g>
</svg>
