<svg width="32" height="23" viewBox="0 0 32 23" fill="none" xmlns="http://www.w3.org/2000/svg">
<path d="M31.33 3.521C31.1494 2.84018 30.7931 2.21875 30.2967 1.71893C29.8004 1.21911 29.1815 0.858428 28.502 0.673C26.007 -1.19209e-07 16 0 16 0C16 0 5.993 -1.19209e-07 3.497 0.673C2.81774 0.858764 2.19915 1.21957 1.70305 1.71936C1.20695 2.21914 0.850732 2.84039 0.67 3.521C0 6.033 0 11.273 0 11.273C0 11.273 0 16.513 0.67 19.025C0.850542 19.7059 1.20682 20.3273 1.70315 20.8272C2.19947 21.327 2.81842 21.6877 3.498 21.873C5.992 22.546 15.999 22.546 15.999 22.546C15.999 22.546 26.006 22.546 28.502 21.873C29.1818 21.6878 29.8009 21.3272 30.2974 20.8274C30.7939 20.3275 31.1504 19.706 31.331 19.025C32 16.513 32 11.273 32 11.273C32 11.273 32 6.033 31.33 3.521V3.521ZM12.727 16.031V6.516L21.09 11.273L12.726 16.03L12.727 16.031Z" fill="#C12727"/>
</svg>
